# xmcd
#
# Track frame offsets: 
#        150
#        23579
#        48686
#        69512
#        95115
#        117550
#        139168
#        161208
#
# Disc length: 2423 seconds
#
# Revision: 3
# Processed by: cddbd v1.5.2PL0 Copyright (c) Steve Scherf et al.
# Submitted via: ExactAudioCopyFreeDBPlugin 1.0
#
DISCID=75097508
DTITLE=星空凛 (飯田里穂) - ラブライブ! Solo Live! III from μ's 星空凛 Memories with R
DTITLE=in [Disc 2]
DYEAR=2018
DGENRE=New Age
TTITLE0=Shangri-La Shower (Rin Mix)
TTITLE1=るてしキスキしてる (Rin Mix)
TTITLE2=ミはμ'sicのミ (Rin Mix)
TTITLE3=Super LOVE=Super LIVE! (Rin Mix)
TTITLE4=Angelic Angel (Rin Mix)
TTITLE5=SUNNY DAY SONG (Rin Mix)
TTITLE6=僕たちはひとつの光 (Rin Mix)
TTITLE7=Hello,星を数えて (Rin Mix)
EXTD=
EXTT0=
EXTT1=
EXTT2=
EXTT3=
EXTT4=
EXTT5=
EXTT6=
EXTT7=
PLAYORDER=
